<svg width="17" height="30" viewBox="0 0 17 30" fill="none" xmlns="http://www.w3.org/2000/svg">
<path fill-rule="evenodd" clip-rule="evenodd" d="M12.9548 30L13.7031 27.2498H2.62924L3.37755 30H12.9548ZM15.0147 13.6081C15.0147 13.6081 15.7796 6.41141 8.74907 6.83568V6.79687C15.7796 7.22076 15.0147 0.0244393 15.0147 0.0244393C15.0147 0.0244393 9.00303 -0.614597 8.29203 4.64276H8.15374C7.44312 -0.614597 1.43105 0.0244393 1.43105 0.0244393C1.43105 0.0244393 0.674454 7.14352 7.58328 6.80328V6.82927C0.674454 6.48903 1.43105 13.6081 1.43105 13.6081C1.43105 13.6081 5.89225 14.0817 7.58328 10.8526V17.5802H0L0.747929 20.3304H15.5844L16.3324 17.5802H8.74907V10.6205C10.3433 14.104 15.0147 13.6081 15.0147 13.6081ZM13.9409 26.3745L15.3467 21.2057H0.985683L2.39149 26.3745H13.9409Z" fill="#C132F3"/>
</svg>
