<svg width="22" height="21" viewBox="0 0 22 21" fill="none" xmlns="http://www.w3.org/2000/svg">
<path d="M16.1523 1.80001H19.0143C19.4051 1.80001 19.723 2.11711 19.723 2.50693V5.36138C19.723 5.85842 20.127 6.26138 20.6254 6.26138C21.1237 6.26138 21.5277 5.85842 21.5277 5.36138V2.50693C21.5277 1.12458 20.4002 0 19.0143 0H16.1523C15.654 0 15.25 0.402962 15.25 0.900003C15.25 1.39705 15.654 1.80001 16.1523 1.80001Z" fill="#2D5523"/>
<path d="M0.473633 2.50693V5.36138C0.473633 5.85842 0.877642 6.26138 1.37598 6.26138C1.87431 6.26138 2.27832 5.85842 2.27832 5.36138V2.50693C2.27832 2.11711 2.59631 1.80001 2.98708 1.80001H5.84902C6.34735 1.80001 6.75136 1.39705 6.75136 0.900003C6.75136 0.402962 6.34735 0 5.84902 0H2.98708C1.6012 0 0.473633 1.12458 0.473633 2.50693Z" fill="#2D5523"/>
<path d="M5.84902 19.2H2.98708C2.59625 19.2 2.27832 18.8829 2.27832 18.4931V15.6386C2.27832 15.1416 1.87431 14.7386 1.37598 14.7386C0.877642 14.7386 0.473633 15.1416 0.473633 15.6386V18.4931C0.473633 19.8754 1.6012 21 2.98708 21H5.84902C6.34735 21 6.75136 20.597 6.75136 20.1C6.75136 19.603 6.34735 19.2 5.84902 19.2Z" fill="#2D5523"/>
<path d="M21.5277 18.4931V15.6386C21.5277 15.1416 21.1237 14.7386 20.6254 14.7386C20.127 14.7386 19.723 15.1416 19.723 15.6386V18.4931C19.723 18.8829 19.4051 19.2 19.0143 19.2H16.1523C15.654 19.2 15.25 19.603 15.25 20.1C15.25 20.597 15.654 21 16.1523 21H19.0143C20.4002 21 21.5277 19.8754 21.5277 18.4931Z" fill="#2D5523"/>
<path d="M0 10.56C0 11.1659 0.28971 11.6572 0.647059 11.6572H21.3529C21.7103 11.6572 22 11.1659 22 10.56C22 9.9541 21.7103 9.46288 21.3529 9.46288H0.647059C0.28971 9.46288 0 9.9541 0 10.56Z" fill="#2D5523"/>
</svg>
