<svg width="22" height="21" viewBox="0 0 22 21" fill="none" xmlns="http://www.w3.org/2000/svg">
<path d="M17.4189 15.278C15.9063 15.278 14.6758 16.5614 14.6758 18.139C14.6758 19.7165 15.9064 21 17.4189 21C18.9315 21 20.1621 19.7165 20.1621 18.139C20.1621 16.5614 18.9315 15.278 17.4189 15.278ZM17.4189 19.2834C16.8138 19.2834 16.3217 18.7701 16.3217 18.139C16.3217 17.5078 16.8138 16.9946 17.4189 16.9946C18.0241 16.9946 18.5162 17.5078 18.5162 18.139C18.5162 18.7701 18.0241 19.2834 17.4189 19.2834Z" fill="black"/>
<path d="M21.8251 4.22028C21.6693 4.01229 21.4304 3.89098 21.1772 3.89098H5.0798L4.33914 0.658879C4.25054 0.272658 3.91942 3.91979e-09 3.53867 3.91979e-09H0.822943C0.368416 -4.48117e-05 0 0.384204 0 0.858263C0 1.33232 0.368416 1.71657 0.822943 1.71657H2.88911L5.56367 13.3885C5.65227 13.775 5.98339 14.0474 6.36414 14.0474H19.1747C19.553 14.0474 19.8827 13.7784 19.9735 13.3956L21.976 4.95553C22.0366 4.69923 21.9809 4.42827 21.8251 4.22028ZM18.5309 12.3308H7.0137L5.47314 5.60759H20.1257L18.5309 12.3308Z" fill="black"/>
<path d="M7.46092 15.278C5.94832 15.278 4.71777 16.5614 4.71777 18.139C4.71777 19.7165 5.94836 21 7.46092 21C8.97347 21 10.2041 19.7165 10.2041 18.139C10.2041 16.5614 8.97347 15.278 7.46092 15.278ZM7.46092 19.2834C6.85578 19.2834 6.36366 18.7701 6.36366 18.139C6.36366 17.5078 6.85578 16.9946 7.46092 16.9946C8.06605 16.9946 8.55817 17.5078 8.55817 18.139C8.55817 18.7701 8.06605 19.2834 7.46092 19.2834Z" fill="black"/>
</svg>
