<svg width="16" height="32" viewBox="0 0 16 32" fill="none" xmlns="http://www.w3.org/2000/svg">
<path d="M10.7764 9.51616C10.6266 9.33294 10.3622 9.31053 10.186 9.46635L8.25749 11.1699C8.15238 10.8808 8.0757 10.7176 8.06124 10.6876C6.83225 8.07613 7.8002 6.19211 7.84583 6.10619C7.95875 5.89708 7.88777 5.63224 7.68677 5.5141C7.48539 5.39578 7.22988 5.46939 7.11595 5.67874C7.06463 5.77313 5.87462 8.02527 7.31187 11.0768C7.31287 11.0788 7.33331 11.122 7.36727 11.204L5.23712 10.501C5.01674 10.4285 4.78118 10.5552 4.71114 10.7843C4.64116 11.0135 4.76319 11.2583 4.98362 11.331L7.71073 12.2309C7.84868 12.7312 7.99427 13.3875 8.09703 14.1878C8.33405 16.0331 8.38543 19.042 7.28439 22.8975C7.21849 23.128 7.34493 23.3704 7.5667 23.4388C7.60652 23.4511 7.64662 23.4569 7.68611 23.4569C7.86672 23.4569 8.03348 23.3345 8.08748 23.1453C9.23812 19.1166 9.17568 15.96 8.92079 14.0214C8.81736 13.235 8.6759 12.5805 8.53745 12.0654L10.7285 10.1298C10.9047 9.9742 10.9262 9.69937 10.7764 9.51616Z" fill="#DC8758"/>
<path d="M11.5201 31.1996H4.48377C3.42367 31.1996 2.53049 30.3549 2.40299 29.2319L1.27051 19.2583H14.7333L13.6008 29.2319C13.4733 30.3549 12.5802 31.1996 11.5201 31.1996Z" fill="#DC8758"/>
<path d="M9.87922 4.89873C10.5684 3.51571 10.4644 2.0377 9.64694 1.59749C8.82945 1.15729 7.60803 1.9216 6.91882 3.30462C6.22961 4.68764 6.33361 6.16565 7.1511 6.60586C7.96859 7.04606 9.19001 6.28175 9.87922 4.89873Z" fill="#DC8758"/>
<path d="M9.64719 1.60015C9.22476 1.37304 8.6946 1.46802 8.18571 1.80299C8.75229 2.39537 8.76011 3.68417 8.15432 4.90022C7.8213 5.56871 7.3638 6.09212 6.8877 6.40556C6.96549 6.48683 7.05351 6.55534 7.15225 6.6084C7.96997 7.04798 9.19136 6.28318 9.88036 4.90016C10.5694 3.51714 10.4649 2.03973 9.64719 1.60015Z" fill="#DC8758"/>
<path d="M15.0221 19.5673H0.983923C0.443762 19.5673 0.00585938 19.1121 0.00585938 18.5506C0.00585938 17.9891 0.443762 17.5339 0.983923 17.5339H15.0221C15.5622 17.5339 16.0001 17.9891 16.0001 18.5506C16.0001 19.1121 15.5622 19.5673 15.0221 19.5673Z" fill="#DC8758"/>
<path d="M12.6535 10.6269C13.9985 9.50478 14.5511 7.89877 13.8879 7.03973C13.2247 6.18069 11.5967 6.39391 10.2517 7.51598C8.90673 8.63805 8.35407 10.2441 9.01731 11.1031C9.68055 11.9621 11.3085 11.7489 12.6535 10.6269Z" fill="#DC8758"/>
<path d="M13.8834 7.03447C13.4527 6.47593 12.6144 6.37085 11.7111 6.67343C11.8863 6.75964 12.0378 6.87929 12.1575 7.03447C12.8202 7.89378 12.2673 9.49984 10.9224 10.6218C10.4517 11.0145 9.94645 11.2954 9.45996 11.4583C10.2552 11.8496 11.5465 11.5411 12.6485 10.6218C13.9932 9.4999 14.5461 7.89378 13.8834 7.03447Z" fill="#DC8758"/>
<path d="M6.5303 11.4193C6.82272 10.3609 5.71644 9.10183 4.05936 8.60711C2.40227 8.1124 0.821891 8.56935 0.529472 9.62773C0.237052 10.6861 1.34333 11.9452 3.00041 12.4399C4.6575 12.9346 6.23788 12.4776 6.5303 11.4193Z" fill="#DC8758"/>
<path d="M4.05946 8.60494C3.28569 8.37423 2.52895 8.35113 1.91211 8.49963C2.05151 8.52813 2.19213 8.56285 2.33343 8.60494C3.99094 9.09915 5.09823 10.3581 4.80665 11.417C4.65117 11.9815 4.12933 12.375 3.42492 12.5446C4.92097 12.8506 6.26596 12.3855 6.53269 11.417C6.82427 10.358 5.71697 9.09909 4.05946 8.60494Z" fill="#DC8758"/>
</svg>
