<svg width="14" height="13" viewBox="0 0 14 13" fill="none" xmlns="http://www.w3.org/2000/svg">
<path d="M10 6.5C10 6.63261 9.94733 6.75979 9.85356 6.85355C9.75979 6.94732 9.63261 7 9.5 7H4.5C4.3674 7 4.24022 6.94732 4.14645 6.85355C4.05268 6.75979 4 6.63261 4 6.5C4 6.36739 4.05268 6.24022 4.14645 6.14645C4.24022 6.05268 4.3674 6 4.5 6H9.5C9.63261 6 9.75979 6.05268 9.85356 6.14645C9.94733 6.24022 10 6.36739 10 6.5ZM13.5 6.5C13.5 7.78558 13.1188 9.04229 12.4046 10.1112C11.6903 11.1801 10.6752 12.0132 9.48745 12.5052C8.29973 12.9972 6.99279 13.1259 5.73192 12.8751C4.47104 12.6243 3.31285 12.0052 2.40381 11.0962C1.49477 10.1872 0.875703 9.02896 0.624899 7.76809C0.374095 6.50721 0.502816 5.20028 0.994786 4.01256C1.48676 2.82484 2.31988 1.80968 3.3888 1.09545C4.45772 0.381218 5.71443 0 7 0C8.72335 0.00181989 10.3756 0.687224 11.5942 1.90582C12.8128 3.12441 13.4982 4.77665 13.5 6.5ZM12.5 6.5C12.5 5.4122 12.1774 4.34883 11.5731 3.44436C10.9687 2.53989 10.1098 1.83494 9.10476 1.41866C8.09977 1.00238 6.9939 0.893462 5.92701 1.10568C4.86011 1.3179 3.8801 1.84172 3.11092 2.61091C2.34173 3.3801 1.8179 4.36011 1.60568 5.427C1.39347 6.4939 1.50238 7.59977 1.91867 8.60476C2.33495 9.60975 3.0399 10.4687 3.94437 11.0731C4.84884 11.6774 5.91221 12 7 12C8.45819 11.9983 9.85617 11.4184 10.8873 10.3873C11.9184 9.35617 12.4984 7.95818 12.5 6.5Z" fill="#2D5523"/>
</svg>
