<svg width="30" height="30" viewBox="0 0 30 30" fill="none" xmlns="http://www.w3.org/2000/svg">
<path d="M21.3189 5.49068C18.1135 6.3323 16.9994 9.09213 17.1847 10.2455C17.2435 10.21 17.3009 10.1758 17.3604 10.1388C17.642 9.96598 17.9486 9.80247 18.2667 9.63387C18.5829 9.46423 18.9235 9.30679 19.2664 9.14711C19.4389 9.06664 19.6197 8.99602 19.7986 8.92321L20.0682 8.8133C20.1844 8.76763 20.256 8.74881 20.3518 8.71527L20.8922 8.53546C21.0801 8.48185 21.2666 8.42944 21.4512 8.37704C21.8249 8.27387 22.1858 8.18284 22.5371 8.11035C23.2391 7.95067 23.899 7.83443 24.4669 7.74657C25.604 7.57343 26.3788 7.54055 26.3788 7.54055C26.3788 7.54055 26.2019 7.61659 25.8914 7.74909C25.5797 7.87879 25.1351 8.05062 24.5998 8.25631C24.3302 8.35434 24.0408 8.46101 23.7342 8.57343C23.427 8.68267 23.1024 8.797 22.7678 8.91549C22.4362 9.0324 22.0958 9.15439 21.7476 9.27862C21.4072 9.39361 21.052 9.52966 20.6956 9.66636C20.3634 9.7906 20.0184 9.95608 19.6799 10.0902C19.3439 10.2432 18.7677 10.4435 18.442 10.5827C18.0491 10.7475 17.8006 10.8367 17.5508 10.9689C14.7546 12.6006 13.5156 15.4893 12.7599 18.5459C12.6258 15.6745 12.0234 12.8887 9.95055 10.8341C9.95246 10.8328 9.95531 10.8322 9.95728 10.8306C9.67653 10.5677 9.3849 10.2851 9.08469 9.98228C8.83813 9.72807 8.57752 9.47539 8.32391 9.20586C8.06363 8.95225 7.80778 8.66834 7.54684 8.42622C7.26867 8.16336 6.994 7.90308 6.7225 7.66544C6.44843 7.41949 6.18049 7.17677 5.91922 6.94138C5.65445 6.70407 5.3986 6.47508 5.15654 6.25659C4.91666 6.03553 4.68767 5.82601 4.47848 5.63247C4.06168 5.23931 3.71513 4.90972 3.4775 4.67077C3.24205 4.42963 3.10791 4.29167 3.10791 4.29167C3.10791 4.29167 3.81059 4.61809 4.79565 5.21185C5.28684 5.51015 5.85188 5.86917 6.44083 6.28471C6.73755 6.4869 7.0365 6.70856 7.34214 6.94586C7.49257 7.06561 7.64553 7.18476 7.79728 7.30516L8.22846 7.67786C8.30417 7.74591 8.36325 7.78962 8.45269 7.87682L8.66095 8.08158C8.79957 8.21763 8.93885 8.35242 9.06691 8.4917C9.32528 8.7696 9.5779 9.04585 9.80629 9.32309C10.0356 9.60034 10.2563 9.86861 10.4505 10.1357C10.4917 10.1932 10.5304 10.2455 10.5715 10.3011C11.1845 9.30619 11.2084 6.32973 8.56609 4.32744C5.6887 2.14917 1.67904 3.12652 0 2.32067C1.69534 4.91415 1.36985 6.64559 4.21792 9.49169C6.12119 11.3959 7.89864 11.5138 9.09601 11.1825C11.5314 13.5269 11.9115 17.1009 11.9127 20.521C11.6636 20.3192 11.3608 20.1607 11.0114 20.1607C10.0258 20.1607 9.30804 20.7152 8.96406 21.506C6.79444 20.7676 5.35336 22.484 5.22847 23.9296C4.1962 23.5457 2.88664 24.7331 2.88664 25.7649C2.88664 26.7837 3.69183 27.6083 4.70047 27.6512L20.6711 27.6793C20.6711 27.6793 22.3728 26.7619 22.3728 25.7642C22.3728 24.7185 21.5252 23.8695 20.4795 23.8695C20.3345 23.8695 20.1958 23.8887 20.0617 23.9193C20.0706 23.8459 19.879 20.6302 17.0849 21.9218C16.8677 20.9157 16.5828 20.1607 14.9041 20.1607C14.0772 20.1607 13.5173 20.4609 13.159 20.7662C13.8581 17.2094 14.9386 13.4936 18.0879 11.6556C18.1224 11.6361 18.1403 11.6099 18.1645 11.5863C19.138 12.3672 20.8398 12.9705 23.3655 11.9216C27.0833 10.3774 27.4429 8.65324 29.9999 6.90391C28.1424 7.00812 24.8092 4.57465 21.3189 5.49068ZM12.6154 21.3649L12.7198 21.2601C12.6672 21.3419 12.6349 21.4013 12.6349 21.4013C12.6349 21.4013 12.6243 21.3808 12.6154 21.3649Z" fill="#00AA77"/>
</svg>
