<svg width="14" height="13" viewBox="0 0 14 13" fill="none" xmlns="http://www.w3.org/2000/svg">
<path d="M7 0C5.71442 0 4.45772 0.381218 3.3888 1.09545C2.31988 1.80968 1.48676 2.82484 0.994786 4.01256C0.502816 5.20028 0.374095 6.50721 0.624899 7.76809C0.875703 9.02896 1.49477 10.1872 2.40381 11.0962C3.31285 12.0052 4.47104 12.6243 5.73192 12.8751C6.99279 13.1259 8.29973 12.9972 9.48744 12.5052C10.6752 12.0132 11.6903 11.1801 12.4046 10.1112C13.1188 9.04229 13.5 7.78558 13.5 6.5C13.4982 4.77665 12.8128 3.12441 11.5942 1.90582C10.3756 0.687224 8.72335 0.00181989 7 0ZM7 12C5.91221 12 4.84884 11.6774 3.94437 11.0731C3.0399 10.4687 2.33495 9.60975 1.91867 8.60476C1.50238 7.59977 1.39347 6.4939 1.60568 5.427C1.8179 4.36011 2.34173 3.3801 3.11092 2.61091C3.8801 1.84172 4.86011 1.3179 5.92701 1.10568C6.9939 0.893462 8.09977 1.00238 9.10476 1.41866C10.1098 1.83494 10.9687 2.53989 11.5731 3.44436C12.1774 4.34883 12.5 5.4122 12.5 6.5C12.4983 7.95818 11.9184 9.35617 10.8873 10.3873C9.85617 11.4184 8.45819 11.9983 7 12ZM10 6.5C10 6.63261 9.94732 6.75979 9.85356 6.85355C9.75979 6.94732 9.63261 7 9.5 7H7.5V9C7.5 9.13261 7.44732 9.25979 7.35356 9.35355C7.25979 9.44732 7.13261 9.5 7 9.5C6.86739 9.5 6.74022 9.44732 6.64645 9.35355C6.55268 9.25979 6.5 9.13261 6.5 9V7H4.5C4.36739 7 4.24022 6.94732 4.14645 6.85355C4.05268 6.75979 4 6.63261 4 6.5C4 6.36739 4.05268 6.24021 4.14645 6.14645C4.24022 6.05268 4.36739 6 4.5 6H6.5V4C6.5 3.86739 6.55268 3.74021 6.64645 3.64645C6.74022 3.55268 6.86739 3.5 7 3.5C7.13261 3.5 7.25979 3.55268 7.35356 3.64645C7.44732 3.74021 7.5 3.86739 7.5 4V6H9.5C9.63261 6 9.75979 6.05268 9.85356 6.14645C9.94732 6.24021 10 6.36739 10 6.5Z" fill="#2D5523"/>
</svg>
