<svg width="14" height="12" viewBox="0 0 14 12" fill="none" xmlns="http://www.w3.org/2000/svg">
<path d="M13.5855 6.39798L8.52297 11.4605C8.41742 11.566 8.27427 11.6253 8.125 11.6253C7.97573 11.6253 7.83258 11.566 7.72703 11.4605C7.62148 11.3549 7.56219 11.2118 7.56219 11.0625C7.56219 10.9132 7.62148 10.7701 7.72703 10.6645L11.8298 6.56251H0.8125C0.663316 6.56251 0.520242 6.50324 0.414753 6.39776C0.309263 6.29227 0.25 6.14919 0.25 6.00001C0.25 5.85082 0.309263 5.70775 0.414753 5.60226C0.520242 5.49677 0.663316 5.43751 0.8125 5.43751H11.8298L7.72703 1.33548C7.62148 1.22993 7.56219 1.08677 7.56219 0.937508C7.56219 0.78824 7.62148 0.645087 7.72703 0.539539C7.83258 0.433991 7.97573 0.374695 8.125 0.374695C8.27427 0.374695 8.41742 0.433991 8.52297 0.539539L13.5855 5.60204C13.6378 5.65428 13.6793 5.71632 13.7076 5.7846C13.7359 5.85289 13.7504 5.92609 13.7504 6.00001C13.7504 6.07393 13.7359 6.14713 13.7076 6.21541C13.6793 6.2837 13.6378 6.34574 13.5855 6.39798Z" fill="#2D5523"/>
</svg>
