<svg width="21" height="21" viewBox="0 0 21 21" fill="none" xmlns="http://www.w3.org/2000/svg">
<g clip-path="url(#clip0_11_142)">
<path d="M20.7434 19.5071L14.7716 13.5353C15.9283 12.1065 16.6248 10.2909 16.6248 8.31339C16.6248 3.73019 12.8956 0.000961304 8.31239 0.000961304C3.72919 0.000961304 0 3.73015 0 8.31335C0 12.8966 3.72923 16.6258 8.31243 16.6258C10.2899 16.6258 12.1055 15.9293 13.5344 14.7726L19.5062 20.7444C19.6768 20.915 19.9008 21.0008 20.1248 21.0008C20.3488 21.0008 20.5728 20.915 20.7434 20.7444C21.0856 20.4023 21.0856 19.8493 20.7434 19.5071ZM8.31243 14.8758C4.69345 14.8758 1.75 11.9323 1.75 8.31335C1.75 4.69437 4.69345 1.75092 8.31243 1.75092C11.9314 1.75092 14.8749 4.69437 14.8749 8.31335C14.8749 11.9323 11.9314 14.8758 8.31243 14.8758Z" fill="#2D5523"/>
</g>
<defs>
<clipPath id="clip0_11_142">
<rect width="21" height="21" fill="white"/>
</clipPath>
</defs>
</svg>
